<?xml version="1.0" standalone="no"?>
<!DOCTYPE svg PUBLIC "-//W3C//DTD SVG 20010904//EN"
 "http://www.w3.org/TR/2001/REC-SVG-20010904/DTD/svg10.dtd">
<svg version="1.0" xmlns="http://www.w3.org/2000/svg"
 width="16.000000pt" height="16.000000pt" viewBox="0 0 16.000000 16.000000"
 preserveAspectRatio="xMidYMid meet">
<metadata>
Created by potrace 1.11, written by Peter Selinger 2001-2013
</metadata>
<g transform="translate(0.000000,16.000000) scale(0.006154,-0.006154)"
fill="#000000" stroke="none">
<path d="M1185 2560 c-546 -47 -1001 -459 -1116 -1013 -30 -143 -30 -352 0
-497 80 -382 329 -705 677 -879 167 -83 319 -121 519 -128 168 -6 290 11 444
63 377 126 680 427 800 793 46 140 56 217 55 411 -1 173 -3 192 -32 303 -55
209 -165 407 -311 560 -269 281 -642 420 -1036 387z m641 -597 c-2 -16 -8 -54
-11 -85 l-6 -58 -304 0 -304 0 -6 -32 c-5 -34 -55 -430 -55 -441 0 -4 117 -7
261 -7 l261 0 -6 -27 c-3 -16 -8 -54 -12 -85 l-6 -58 -259 0 c-143 0 -259 -1
-259 -2 -1 -2 -18 -136 -38 -298 l-37 -295 -101 -3 c-101 -3 -101 -3 -97 20 2
13 39 318 83 678 44 360 82 670 85 688 l6 32 405 0 406 0 -6 -27z"/>
</g>
</svg>
